:FULLY-SPECIFIED
:FORCE-ALL-JOINTS-BE-3DOF
:DEGREES
204
root 4.84237 15.0893 -25.4205 7.15025 -0.59286 6.00495
lfemur 8.54564 -5.81212 0.845959
ltibia 2.79535 -0 0
lfoot -33.9435 -14.7802 -0.332322
ltoes 54.9877 -0 0
rfemur -30.1744 -19.5122 -9.27016
rtibia 50.1745 -0 0
rfoot -27.7434 17.2669 0.232854
rtoes 59.9197 -0 0
lowerback -3.0116 -1.6955 -0.795409
upperback -0.798867 -2.19036 -7.78591
thorax 0.5827 -1.1042 -7.76172
lowerneck -11.4109 0.321129 6.11154
upperneck 3.74275 -0.64474 2.63617
head 3.22599 -0.102361 -0.254734
lclavicle 4.58199e-14 1.27222e-14 0
lhumerus -58.7445 -45.7051 115.23
lradius 54.3144 -0 0
lwrist 24.6099 0 0
lhand 42.161 30.1536 -0.159129
lfingers 7.12502 -0 0
lthumb 64.2801 39.452 0.0238631
rclavicle 4.58199e-14 1.27222e-14 0
rhumerus -9.30623 -16.5098 -12.1237
rradius 75.2155 -0 0
rwrist -28.4348 0 0
rhand -10.6289 -42.6951 12.9422
rfingers 7.12502 -0 0
rthumb -25.9614 95.5077 -2.2146
205
root 4.82661 15.0704 -25.4382 7.20147 -0.762231 5.94937
lfemur 8.35875 -5.40057 0.799455
ltibia 3.27577 -0 0
lfoot -34.5689 -13.9916 -0.282751
ltoes 53.9418 -0 0
rfemur -30.7343 -19.8338 -9.04084
rtibia 50.6622 -0 0
rfoot -27.4929 17.6111 0.164162
rtoes 60.01 -0 0
lowerback -2.8152 -1.60801 -0.774399
upperback -0.809224 -2.08404 -7.76212
thorax 0.475245 -1.05347 -7.73577
lowerneck -11.2801 0.34345 6.34806
upperneck 3.72782 -0.631205 2.54624
head 3.197 -0.0975809 -0.323925
lclavicle 4.58199e-14 1.27222e-14 0
lhumerus -59.0286 -45.9831 115.612
lradius 54.3194 -0 0
lwrist 24.7224 0 0
lhand 41.8773 30.0518 -0.149124
lfingers 7.12502 -0 0
lthumb 64.0425 39.6371 0.0215186
rclavicle 4.58199e-14 1.27222e-14 0
rhumerus -8.52919 -21.9305 -12.379
rradius 71.4017 -0 0
rwrist -27.5783 0 0
rhand -18.2021 -47.8618 12.055
rfingers 7.12502 -0 0
rthumb -28.5589 100.322 3.08779
206
root 4.81179 15.0545 -25.4564 7.25865 -0.890753 5.8546
lfemur 8.05466 -4.90209 0.82366
ltibia 3.88749 -0 0
lfoot -35.0602 -13.2181 -0.221201
ltoes 52.6815 -0 0
rfemur -31.2374 -20.1219 -8.77346
rtibia 51.0758 -0 0
rfoot -27.2748 17.901 0.101051
rtoes 60.0895 -0 0
lowerback -2.61594 -1.53358 -0.746749
upperback -0.811772 -1.99432 -7.70884
thorax 0.373396 -1.01114 -7.68312
lowerneck -11.1702 0.36848 6.54702
upperneck 3.70764 -0.609735 2.45756
head 3.17014 -0.0893863 -0.385709
lclavicle 4.58199e-14 1.27222e-14 0
lhumerus -59.2708 -46.2177 115.972
lradius 54.3403 -0 0
lwrist 24.8014 0 0
lhand 41.5126 29.9034 -0.128801
lfingers 7.12502 -0 0
lthumb 63.7306 39.8158 0.0179839
rclavicle 4.58199e-14 1.27222e-14 0
rhumerus -7.77012 -26.5779 -12.8983
rradius 68.1404 -0 0
rwrist -26.6396 0 0
rhand -26.1492 -53.1235 10.375
rfingers 7.12502 -0 0
rthumb -29.6537 103.055 6.42135
207
root 4.79773 15.0419 -25.4747 7.32282 -0.979949 5.71668
lfemur 7.63002 -4.31702 0.928041
ltibia 4.63104 -0 0
lfoot -35.3963 -12.4714 -0.150974
ltoes 51.2102 -0 0
rfemur -31.6734 -20.3737 -8.46682
rtibia 51.3998 -0 0
rfoot -27.1045 18.1421 0.0490118
rtoes 60.1634 -0 0
lowerback -2.41647 -1.47504 -0.711967
upperback -0.805409 -1.92467 -7.62285
thorax 0.279473 -0.978883 -7.60099
lowerneck -11.0866 0.399989 6.7016
upperneck 3.68196 -0.575132 2.37022
head 3.14625 -0.0752399 -0.438595
lclavicle 4.58199e-14 1.27222e-14 0
lhumerus -59.4613 -46.4004 116.301
lradius 54.3807 -0 0
lwrist 24.8439 0 0
lhand 41.0581 29.7026 -0.0973668
lfingers 7.12502 -0 0
lthumb 63.3361 39.9847 0.0132567
rclavicle 4.58199e-14 1.27222e-14 0
rhumerus -7.02935 -30.2849 -13.6632
rradius 65.5585 -0 0
rwrist -25.6271 0 0
rhand -34.3627 -58.3273 7.82813
rfingers 7.12502 -0 0
rthumb -29.3658 103.566 7.23964
208
root 4.78428 15.033 -25.4931 7.3949 -1.03132 5.53166
lfemur 7.08204 -3.64507 1.12143
ltibia 5.50694 -0 0
lfoot -35.5562 -11.7633 -0.0758792
ltoes 49.5316 -0 0
rfemur -32.0323 -20.5868 -8.11976
rtibia 51.6186 -0 0
rfoot -26.9973 18.3401 0.0135199
rtoes 60.2365 -0 0
lowerback -2.2195 -1.43521 -0.669585
upperback -0.789066 -1.87858 -7.50094
thorax 0.19578 -0.958366 -7.48659
lowerneck -11.0347 0.441737 6.80495
upperneck 3.65052 -0.522198 2.28429
head 3.12617 -0.0526032 -0.481091
lclavicle 4.58199e-14 1.27222e-14 0
lhumerus -59.5902 -46.5225 116.587
lradius 54.444 -0 0
lwrist 24.847 0 0
lhand 40.5049 29.4434 -0.0544113
lfingers 7.12502 -0 0
lthumb 62.8506 40.1402 0.00729878
rclavicle 4.58199e-14 1.27222e-14 0
rhumerus -6.33317 -32.8859 -14.6394
rradius 63.7832 -0 0
rwrist -24.5493 0 0
rhand -42.7472 -63.3122 4.37224
rfingers 7.12502 -0 0
rthumb -27.5748 101.548 5.1528
209
root 4.77125 15.028 -25.5113 7.47577 -1.04632 5.29561
lfemur 6.40854 -2.88516 1.41202
ltibia 6.51572 0 0
lfoot -35.519 -11.1051 0
ltoes 47.6492 0 0
rfemur -32.3034 -20.759 -7.73114
rtibia 51.7168 0 0
rfoot -26.9685 18.5007 0
rtoes 60.314 0 0
lowerback -2.0277 -1.41691 -0.619155
upperback -0.761724 -1.85956 -7.33989
thorax 0.124597 -0.951279 -7.33711
lowerneck -11.0197 0.497443 6.85025
upperneck 3.61305 -0.445735 2.19984
head 3.11075 -0.0189374 -0.511705
lclavicle 8.34896e-15 4.77083e-14 0
lhumerus -59.6475 -46.5756 116.821
lradius 54.5338 0 0
lwrist 24.8079 0 0
lhand 39.8441 29.1198 0
lfingers 7.12502 0 0
lthumb 62.2658 40.2788 0
rclavicle 8.34896e-15 4.77083e-14 0
rhumerus -5.73786 -34.2174 -15.7718
rradius 62.9414 0 0
rwrist -23.4146 0 0
rhand -51.2407 -67.921 0
rfingers 7.12502 0 0
rthumb -23.7795 -623.531 0
210
root 4.75728 15.0274 -25.5309 7.56342 -1.03606 4.99363
lfemur 5.55664 -1.97275 1.83218
ltibia 7.75773 -0 0
lfoot -35.2512 -10.4713 0.0744459
ltoes 45.3117 -0 0
rfemur -32.5098 -20.9094 -7.27139
rtibia 51.7121 -0 0
rfoot -26.9715 18.6293 -0.00916728
rtoes 60.3828 -0 0
lowerback -1.82446 -1.42127 -0.559993
upperback -0.716374 -1.86933 -7.13226
thorax 0.0639865 -0.958413 -7.14437
lowerneck -11.0473 0.569179 6.83658
upperneck 3.56617 -0.343266 2.11743
head 3.10013 0.0268815 -0.529952
lclavicle 8.34896e-15 4.77083e-14 0
lhumerus -59.6214 -46.5777 117.005
lradius 54.6439 -0 0
lwrist 24.7121 0 0
lhand 39.0509 28.715 0.061564
lfingers 7.12502 -0 0
lthumb 61.5619 40.4142 -0.00993857
rclavicle 8.34896e-15 4.77083e-14 0
rhumerus -5.25891 -34.1282 -17.1067
rradius 63.0879 -0 0
rwrist -21.9931 0 0
rhand -60.3316 -71.9615 -5.59172
rfingers 7.12502 -0 0
rthumb -18.1533 89.6795 -6.2595
211
root 4.74158 15.0314 -25.553 7.65518 -1.00678 4.61942
lfemur 4.49573 -0.856494 2.3867
ltibia 9.30597 -0 0
lfoot -34.7523 -9.82955 0.145337
ltoes 42.3306 -0 0
rfemur -32.6804 -21.0548 -6.72088
rtibia 51.6357 -0 0
rfoot -26.9543 18.7235 -0.0328812
rtoes 60.4274 -0 0
lowerback -1.59451 -1.44595 -0.49226
upperback -0.649175 -1.90525 -6.87631
thorax 0.00983037 -0.978335 -6.90556
lowerneck -11.1153 0.65425 6.77112
upperneck 3.50766 -0.219004 2.03731
head 3.09345 0.0827544 -0.537199
lclavicle 8.34896e-15 4.77083e-14 0
lhumerus -59.5136 -46.5524 117.152
lradius 54.7658 -0 0
lwrist 24.5526 0 0
lhand 38.1172 28.2231 0.123847
lfingers 7.12502 -0 0
lthumb 60.7341 40.5607 -0.0226986
rclavicle 8.34896e-15 4.77083e-14 0
rhumerus -4.90995 -32.6936 -18.6772
rradius 64.1159 -0 0
rwrist -20.1066 0 0
rhand -70.4606 -75.0233 -12.6226
rfingers 7.12502 -0 0
rthumb -11.5799 82.9505 -11.6812
